<mxfile host="app.diagrams.net" modified="2022-11-20T09:54:59.014Z" agent="5.0 (Windows NT 10.0; Win64; x64) AppleWebKit/537.36 (KHTML, like Gecko) Chrome/107.0.0.0 Safari/537.36 Edg/107.0.1418.52" etag="-tSmBxD9V18i6hw3LZHl" version="20.5.3" type="github">
  <diagram id="C5RBs43oDa-KdzZeNtuy" name="Page-1">
    <mxGraphModel dx="1422" dy="754" grid="1" gridSize="10" guides="1" tooltips="1" connect="1" arrows="1" fold="1" page="1" pageScale="1" pageWidth="827" pageHeight="1169" math="0" shadow="0">
      <root>
        <mxCell id="WIyWlLk6GJQsqaUBKTNV-0" />
        <mxCell id="WIyWlLk6GJQsqaUBKTNV-1" parent="WIyWlLk6GJQsqaUBKTNV-0" />
        <mxCell id="IIq2u0qRcLUe7jVaphyi-0" value="浏览器" style="swimlane;whiteSpace=wrap;html=1;" vertex="1" parent="WIyWlLk6GJQsqaUBKTNV-1">
          <mxGeometry x="40" y="40" width="250" height="420" as="geometry" />
        </mxCell>
        <mxCell id="IIq2u0qRcLUe7jVaphyi-1" value="&lt;font&gt;&lt;br&gt;&lt;span style=&quot;font-family: &amp;quot;PingFang SC&amp;quot;, &amp;quot;Noto Sans SC&amp;quot;, &amp;quot;Meslo LG&amp;quot;, &amp;quot;Microsoft YaHei&amp;quot;; font-size: 16px; font-style: normal; font-variant-ligatures: normal; font-variant-caps: normal; font-weight: 400; letter-spacing: normal; orphans: 2; text-indent: 0px; text-transform: none; widows: 2; word-spacing: 0px; -webkit-text-stroke-width: 0px; text-decoration-thickness: initial; text-decoration-style: initial; text-decoration-color: initial; float: none; display: inline !important;&quot;&gt;/redirect/boy?id=10001&lt;/span&gt;&lt;/font&gt;" style="rounded=0;whiteSpace=wrap;html=1;strokeColor=#82b366;fillColor=#d5e8d4;fontColor=#000000;align=center;" vertex="1" parent="IIq2u0qRcLUe7jVaphyi-0">
          <mxGeometry x="20" y="85" width="200" height="60" as="geometry" />
        </mxCell>
        <mxCell id="IIq2u0qRcLUe7jVaphyi-5" value="&lt;span style=&quot;font-family: &amp;quot;PingFang SC&amp;quot;, &amp;quot;Noto Sans SC&amp;quot;, &amp;quot;Meslo LG&amp;quot;, &amp;quot;Microsoft YaHei&amp;quot;; font-size: 16px;&quot;&gt;return&lt;/span&gt;" style="rounded=0;whiteSpace=wrap;html=1;labelBackgroundColor=none;fontSize=14;fillColor=#d5e8d4;strokeColor=#82b366;fontColor=#000000;" vertex="1" parent="IIq2u0qRcLUe7jVaphyi-0">
          <mxGeometry x="20" y="295" width="200" height="60" as="geometry" />
        </mxCell>
        <mxCell id="IIq2u0qRcLUe7jVaphyi-6" value="服务器" style="swimlane;whiteSpace=wrap;html=1;" vertex="1" parent="WIyWlLk6GJQsqaUBKTNV-1">
          <mxGeometry x="560" y="40" width="240" height="420" as="geometry" />
        </mxCell>
        <mxCell id="IIq2u0qRcLUe7jVaphyi-17" style="edgeStyle=orthogonalEdgeStyle;rounded=0;orthogonalLoop=1;jettySize=auto;html=1;exitX=0.5;exitY=1;exitDx=0;exitDy=0;entryX=0.5;entryY=0;entryDx=0;entryDy=0;fontColor=#000000;" edge="1" parent="IIq2u0qRcLUe7jVaphyi-6" source="IIq2u0qRcLUe7jVaphyi-7" target="IIq2u0qRcLUe7jVaphyi-8">
          <mxGeometry relative="1" as="geometry" />
        </mxCell>
        <mxCell id="IIq2u0qRcLUe7jVaphyi-7" value="&lt;div style=&quot;&quot;&gt;&lt;font face=&quot;PingFang SC, Noto Sans SC, Meslo LG, Microsoft YaHei&quot;&gt;&lt;span style=&quot;font-size: 16px;&quot;&gt;BoyServlet&lt;/span&gt;&lt;/font&gt;&lt;/div&gt;&lt;div style=&quot;&quot;&gt;&lt;font face=&quot;PingFang SC, Noto Sans SC, Meslo LG, Microsoft YaHei&quot;&gt;&lt;span style=&quot;font-size: 16px;&quot;&gt;A对B说：帮我拿下快递&lt;/span&gt;&lt;/font&gt;&lt;/div&gt;&lt;div style=&quot;&quot;&gt;&lt;font face=&quot;PingFang SC, Noto Sans SC, Meslo LG, Microsoft YaHei&quot;&gt;&lt;span style=&quot;font-size: 16px;&quot;&gt;B对A说：好的&lt;/span&gt;&lt;/font&gt;&lt;/div&gt;&lt;div style=&quot;&quot;&gt;&lt;font face=&quot;PingFang SC, Noto Sans SC, Meslo LG, Microsoft YaHei&quot;&gt;&lt;span style=&quot;font-size: 16px;&quot;&gt;请求转发&lt;/span&gt;&lt;/font&gt;&lt;/div&gt;&lt;div style=&quot;&quot;&gt;&lt;font face=&quot;PingFang SC, Noto Sans SC, Meslo LG, Microsoft YaHei&quot;&gt;&lt;span style=&quot;font-size: 16px;&quot;&gt;1.获取请求转发对象&lt;/span&gt;&lt;/font&gt;&lt;/div&gt;&lt;div style=&quot;&quot;&gt;&lt;font face=&quot;PingFang SC, Noto Sans SC, Meslo LG, Microsoft YaHei&quot;&gt;&lt;span style=&quot;font-size: 16px;&quot;&gt;2.发送转发&lt;/span&gt;&lt;/font&gt;&lt;/div&gt;" style="rounded=0;whiteSpace=wrap;html=1;labelBackgroundColor=none;fillColor=#e1d5e7;strokeColor=#9673a6;align=left;spacingLeft=7;" vertex="1" parent="IIq2u0qRcLUe7jVaphyi-6">
          <mxGeometry x="20" y="40" width="200" height="150" as="geometry" />
        </mxCell>
        <mxCell id="IIq2u0qRcLUe7jVaphyi-8" value="&lt;div&gt;&lt;font face=&quot;PingFang SC, Noto Sans SC, Meslo LG, Microsoft YaHei&quot;&gt;&lt;span style=&quot;font-size: 16px;&quot;&gt;GirlServlet&lt;/span&gt;&lt;/font&gt;&lt;/div&gt;&lt;div&gt;&lt;font face=&quot;PingFang SC, Noto Sans SC, Meslo LG, Microsoft YaHei&quot;&gt;&lt;span style=&quot;font-size: 16px;&quot;&gt;B对C说：帮A拿下快递&lt;/span&gt;&lt;/font&gt;&lt;/div&gt;&lt;div&gt;&lt;font face=&quot;PingFang SC, Noto Sans SC, Meslo LG, Microsoft YaHei&quot;&gt;&lt;span style=&quot;font-size: 16px;&quot;&gt;C对A说：拿到快递了&lt;/span&gt;&lt;/font&gt;&lt;/div&gt;" style="rounded=0;whiteSpace=wrap;html=1;labelBackgroundColor=none;fillColor=#e1d5e7;strokeColor=#9673a6;align=left;spacingLeft=7;" vertex="1" parent="IIq2u0qRcLUe7jVaphyi-6">
          <mxGeometry x="20" y="250" width="200" height="150" as="geometry" />
        </mxCell>
        <mxCell id="IIq2u0qRcLUe7jVaphyi-10" value="请求头 行 体" style="text;html=1;strokeColor=none;fillColor=none;align=center;verticalAlign=middle;whiteSpace=wrap;rounded=0;labelBackgroundColor=none;fontColor=#000000;fontStyle=1;fontSize=14;" vertex="1" parent="WIyWlLk6GJQsqaUBKTNV-1">
          <mxGeometry x="330" y="120" width="200" height="30" as="geometry" />
        </mxCell>
        <mxCell id="IIq2u0qRcLUe7jVaphyi-16" value="拿到快递了" style="text;html=1;align=center;verticalAlign=middle;resizable=0;points=[];autosize=1;strokeColor=none;fillColor=none;fontSize=14;fontColor=#000000;fontStyle=1" vertex="1" parent="WIyWlLk6GJQsqaUBKTNV-1">
          <mxGeometry x="385" y="330" width="90" height="30" as="geometry" />
        </mxCell>
        <mxCell id="IIq2u0qRcLUe7jVaphyi-19" style="edgeStyle=orthogonalEdgeStyle;rounded=0;orthogonalLoop=1;jettySize=auto;html=1;exitX=1;exitY=0.5;exitDx=0;exitDy=0;fontColor=#000000;" edge="1" parent="WIyWlLk6GJQsqaUBKTNV-1" source="IIq2u0qRcLUe7jVaphyi-1" target="IIq2u0qRcLUe7jVaphyi-7">
          <mxGeometry relative="1" as="geometry" />
        </mxCell>
        <mxCell id="IIq2u0qRcLUe7jVaphyi-20" style="edgeStyle=orthogonalEdgeStyle;rounded=0;orthogonalLoop=1;jettySize=auto;html=1;exitX=0;exitY=0.5;exitDx=0;exitDy=0;entryX=1;entryY=0.5;entryDx=0;entryDy=0;fontColor=#000000;" edge="1" parent="WIyWlLk6GJQsqaUBKTNV-1" source="IIq2u0qRcLUe7jVaphyi-8" target="IIq2u0qRcLUe7jVaphyi-5">
          <mxGeometry relative="1" as="geometry" />
        </mxCell>
      </root>
    </mxGraphModel>
  </diagram>
</mxfile>
